# xmcd CD database file
#
# Track frame offsets:
#	150
#	12346
#	35124
#	50880
#	69632
#	85034
#	96792
#	122339
#	135410
#	147873
#	158798
#	182619
#	201523
#	227468
#	247394
#	265884
#	291183
#	305704
#	312259
#	335412
#
# Disc length: 4745 seconds
#
# Revision: 0
# Processed by: cddbd v1.5.2PL0 Copyright (c) Steve Scherf et al.
# Submitted via: CDex 1.70beta2
#
DISCID=29128714
DTITLE=Various Artist - 100% Late Night Jazz CD 1
DYEAR=1900
DGENRE=Jazz
TTITLE0=Stan's Mood
TTITLE1=Prelude To A Kiss
TTITLE2=How Deep Is The Ocean
TTITLE3=Take Five
TTITLE4=Teach Me Tonight
TTITLE5=Milestones
TTITLE6=Body And Soul
TTITLE7=Born To Be Blue
TTITLE8=The Good Life
TTITLE9=Bronwyn 11
TTITLE10=Sunshine
TTITLE11=My Foolish Heart
TTITLE12=That's All There Is To Love
TTITLE13=In A Meditationg Mood
TTITLE14=Time On My Hands
TTITLE15=Never Never Land
TTITLE16=You Belong To Me
TTITLE17=And So
TTITLE18=Soring Can Really Hang You Up The Most
TTITLE19=Easy Dreaming
EXTD=
EXTT0=
EXTT1=
EXTT2=
EXTT3=
EXTT4=
EXTT5=
EXTT6=
EXTT7=
EXTT8=
EXTT9=
EXTT10=
EXTT11=
EXTT12=
EXTT13=
EXTT14=
EXTT15=
EXTT16=
EXTT17=
EXTT18=
EXTT19=
PLAYORDER=
